<?xml version="1.0" encoding="utf-8"?>
<!-- Generator: Adobe Illustrator 22.0.1, SVG Export Plug-In . SVG Version: 6.00 Build 0)  -->
<svg version="1.1" xmlns="http://www.w3.org/2000/svg" xmlns:xlink="http://www.w3.org/1999/xlink" x="0px" y="0px"
	 viewBox="0 0 1920 1080" enable-background="new 0 0 1920 1080" xml:space="preserve">

<g id="CAMBRIDGE_JTMS|9800X0ZIVU6O">
	<path id="_x3C_Path_x3E_" fill="none" stroke="#1D00D0" stroke-miterlimit="10" d="M653.5,617.5c-5.22,4.72-14.02,14.1-17,28
		c-2.29,10.67-0.17,19.46,1,24c16.08,62.2,40,104,40,104c12.89,22.52,30.95,53.64,63,89c27.21,30.02,54.28,51.8,76,67"/>
</g>
<g id="CAMBRIDGE_JTMS|9800YRFYK4MB">
	<path id="_x3C_Path_x3E__3_" fill="none" stroke="#1D00D0" stroke-miterlimit="10" d="M647.5,616.5c-5.22,4.72-14.02,14.1-17,28
		c-2.29,10.67-0.17,19.46,1,24c16.08,62.2,40,104,40,104c12.89,22.52,30.95,53.64,63,89c27.21,30.02,54.28,51.8,76,67"/>
</g>
<g id="CAMBRIDGE_JTMS|9800ZOU6HKFP">
	<path id="_x3C_Path_x3E__1_" fill="none" stroke="#1D00D0" stroke-miterlimit="10" d="M656.5,616.5c3.33,5.29,4.53,9.8,5,13
		c0.47,3.2,0.16,4.73,1,8c1.3,5.05,3.84,8.44,5,10c6.85,9.24,16.1,23.4,19,28c9.07,14.37,9.62,20.12,16,25c1.17,0.9,4.83,3.52,9,8
		c3.25,3.5,2.92,3.94,5,6c4.09,4.04,8.22,5.33,17,8c22.5,6.84,25.04,9.34,26,12c1.22,3.37-0.73,4.87,1,9c2.31,5.5,7.29,5.16,8,9
		c0.96,5.17-7.46,9.11-6,13c0.98,2.61,5.03,1.56,7,5c1.82,3.19-0.84,5.52,1,9c1.11,2.1,3.07,3.07,7,5c2.09,1.03,2.71,1.1,8,3
		c7.5,2.69,8.87,3.48,10,5c1.55,2.08,0.77,3.03,2,5c1.68,2.69,4.95,3.85,15,5c10.09,1.15,15.12,1.82,19,1c8.13-1.71,9.64-5.4,14-6
		c6.04-0.83,15.18,4.56,29,31"/>
</g>
<g id="CAMBRIDGE_JTMS|9800WJ0FVHGT">
	<path id="_x3C_Path_x3E__2_" fill="none" stroke="#1D00D0" stroke-miterlimit="10" d="M650.5,618.5c3.33,5.29,4.53,9.8,5,13
		c0.47,3.2,0.16,4.73,1,8c1.3,5.05,3.84,8.44,5,10c6.85,9.24,16.1,23.4,19,28c9.07,14.37,9.62,20.12,16,25c1.17,0.9,4.83,3.52,9,8
		c3.25,3.5,2.92,3.94,5,6c4.09,4.04,8.22,5.33,17,8c22.5,6.84,25.04,9.34,26,12c1.22,3.37-0.73,4.87,1,9c2.31,5.5,7.29,5.16,8,9
		c0.96,5.17-7.46,9.11-6,13c0.98,2.61,5.03,1.56,7,5c1.82,3.19-0.84,5.52,1,9c1.11,2.1,3.07,3.07,7,5c2.09,1.03,2.71,1.1,8,3
		c7.5,2.69,8.87,3.48,10,5c1.45,1.96,1.43,3.46,2,5c3.01,8.16,22.32,11.87,40,9c10.16-1.65,11.74-4.16,17-3
		c10.4,2.3,16.48,14.8,20,25"/>
</g>
<g id="CAMBRIDGE_JTMS|9800YVIKPE9J">
	<path fill="none" stroke="#1D00D0" stroke-miterlimit="10" d="M813,935c3.88-4.82,9.24-12.53,13-23c6.14-17.09,1.42-23.2,8-37
		c5.3-11.14,10.1-10.78,20-26c6.2-9.52,9.87-18.19,12-24"/>
</g>
<g id="CAMBRIDGE_JTMS|9800YRAA8RIZ">
	<path fill="none" stroke="#1D00D0" stroke-miterlimit="10" d="M818,937c3.88-4.82,9.24-12.53,13-23c6.14-17.09,1.42-23.2,8-37
		c5.3-11.14,10.1-10.78,20-26c6.2-9.52,9.87-18.19,12-24"/>
</g>
<g id="CAMBRIDGE_JTMS|9800Y7I6DL1R">
	<path fill="none" stroke="#1D00D0" stroke-miterlimit="10" d="M888,728c-0.94,1.62-2.34,4.04-4,7c-7.16,12.79-11.4,20.35-14,27
		c-4.9,12.54-4.6,24.02-4,47c0.19,7.08,0.63,12.95,1,17"/>
</g>
<g id="CAMBRIDGE_JTMS|9800YTUFOBKU">
	<path fill="none" stroke="#1D00D0" stroke-miterlimit="10" d="M893,730c-0.94,1.62-2.34,4.04-4,7c-7.16,12.79-11.4,20.35-14,27
		c-4.9,12.54-4.6,24.02-4,47c0.19,7.08,0.63,12.95,1,17"/>
</g>
<g id="CAMBRIDGE_JTMS|9800YVUBC1AU">
	<path fill="none" stroke="#1D00D0" stroke-miterlimit="10" d="M938,613c-0.93,1.86-2.31,4.63-4,8c-6.84,13.63-7.33,14.35-9,18
		c-1.86,4.06-4.58,10.06-7,18c-2.52,8.27-1.66,8.67-4,17c-1.47,5.24-3.88,13.67-9,23c-4.5,8.21-6.84,9.35-11,18
		c-2.57,5.34-4.11,9.96-5,13"/>
</g>
<g id="CAMBRIDGE_JTMS|9800YM7QIQJZ">
	<path fill="none" stroke="#1D00D0" stroke-miterlimit="10" d="M943,616c-0.93,1.86-2.31,4.63-4,8c-6.84,13.63-7.33,14.35-9,18
		c-1.86,4.06-4.58,10.06-7,18c-2.52,8.27-1.66,8.67-4,17c-1.47,5.24-3.88,13.67-9,23c-4.5,8.21-6.84,9.35-11,18
		c-2.57,5.34-4.11,9.96-5,13"/>
</g>
<g id="CAMBRIDGE_JTMS|9800YY0NFVJM">
	<path fill="none" stroke="#1D00D0" stroke-miterlimit="10" d="M890,727c10.14,1.52,26.16,3.78,46,6c25.18,2.82,24.57,1.98,51,5
		c23.45,2.68,48.62,6.15,57,7c2.67,0.27,5.31,1.01,8,1c2.59-0.01,4.71-0.34,6,1c0.85,0.88,1,2.12,1,3"/>
</g>
<g id="CAMBRIDGE_JTMS|9800Z09T4ENM">
	<path fill="none" stroke="#1D00D0" stroke-miterlimit="10" d="M889,733c10.14,1.52,26.16,3.78,46,6c25.18,2.82,24.57,1.98,51,5
		c23.45,2.68,48.62,6.15,57,7c2.67,0.27,5.31,1.01,8,1c2.59-0.01,4.71-0.34,6,1c0.85,0.88,1,2.12,1,3"/>
</g>
<g id="CAMBRIDGE_JTMS|9800XMRV0HQE">
	<path fill="none" stroke="#1D00D0" stroke-miterlimit="10" d="M1058,749c2.25,3.77,4.9,7.81,8,12c3.05,4.12,6.09,7.78,9,11"/>
</g>
<g id="CAMBRIDGE_JTMS|9800YOMOIY5F">
	<path fill="none" stroke="#1D00D0" stroke-miterlimit="10" d="M1054,751c2.25,3.77,4.9,7.81,8,12c3.05,4.12,6.09,7.78,9,11"/>
</g>
<g id="CAMBRIDGE_JTMS|9800XMPLJZ1P">
	<path fill="none" stroke="#1D00D0" stroke-miterlimit="10" d="M1075,772c3.92,3.23,9.67,8.26,16,15c12.13,12.9,13.92,18.78,26,35
		c13.36,17.94,26.53,31.38,34,39c0,0,0.65,0.66,20,20"/>
</g>
<g id="CAMBRIDGE_JTMS|9800YR0MWWBK">
	<path fill="none" stroke="#1D00D0" stroke-miterlimit="10" d="M1072,777c3.92,3.23,9.67,8.26,16,15c12.13,12.9,13.92,18.78,26,35
		c13.36,17.94,26.53,31.38,34,39c0,0,0.65,0.66,20,20l0,0"/>
</g>
<g id="CAMBRIDGE_JTMS|9800YN9NE8YZ">
	<path fill="none" stroke="#1D00D0" stroke-miterlimit="10" d="M1172,884c1.98-3.38,4.53-8.11,7-14c1.7-4.05,3.74-8.93,5-15
		c1.48-7.14,0.54-9.53,1-17c0.7-11.46,3.26-11.8,7-31c1.07-5.5,2.18-11.18,3-19c1.66-15.75-0.14-18.15,3-23
		c4.53-6.99,10.64-5.66,15-14c2.02-3.86,0.88-4.47,3-11c1.65-5.07,2.82-6.1,10-19c5.49-9.86,5.88-11.14,8.5-14.5
		c3.64-4.66,7.35-7.93,10-10"/>
</g>
<g id="CAMBRIDGE_JTMS|9800WVVAYPZM">
	<path fill="none" stroke="#1D00D0" stroke-miterlimit="10" d="M1169,882c1.98-3.38,4.53-8.11,7-14c1.7-4.05,3.74-8.93,5-15
		c1.48-7.14,0.54-9.53,1-17c0.7-11.46,3.26-11.8,7-31c1.07-5.5,2.18-11.18,3-19c1.66-15.75-0.14-18.15,3-23
		c4.53-6.99,10.64-5.66,15-14c2.02-3.86,0.88-4.47,3-11c1.89-5.83,4.59-10.22,10-19c5.1-8.27,7.75-12.51,12.5-17.5
		c3.43-3.6,6.65-6.24,9-8"/>
</g>
<g id="CAMBRIDGE_JTMS|9800YPWMC3HE">
	<path fill="none" stroke="#1D00D0" stroke-miterlimit="10" d="M1121,663c40.33,10.33,80.67,20.67,121,31"/>
</g>
<g id="CAMBRIDGE_JTMS|9800ZQVSGEM1">
	<path fill="none" stroke="#1D00D0" stroke-miterlimit="10" d="M1120,667c40.33,10.33,80.67,20.67,121,31"/>
</g>
<g id="CAMBRIDGE_JTMS|9800X0YR0MJP">
	<path fill="none" stroke="#1D00D0" stroke-miterlimit="10" d="M1012,639c9.65,30.81,22.05,63.05,38,96c2.63,5.43,5.3,10.76,8,16"/>
</g>
<g id="CAMBRIDGE_JTMS|9800WK1UL2BE">
	<path fill="none" stroke="#1D00D0" stroke-miterlimit="10" d="M1017,638c9.65,30.81,22.05,63.05,38,96c2.63,5.43,5.3,10.76,8,16"/>
</g>
<g id="CAMBRIDGE_JTMS|9800ZRJX0GEF">
	<path fill="none" stroke="#1D00D0" stroke-miterlimit="10" d="M1056,750c1.79-1.36,6.34-0.93,10.5-2.5l29.5-7.5
		c14.85-2.21,27.12-3.82,43-6c19.3-2.66,29.01-4,32-5c10.73-3.58,14.43-7.07,30-15c11.13-5.67,17.96-6.49,29-13
		c5.27-3.11,9.37-6.03,12-8"/>
</g>
<g id="CAMBRIDGE_JTMS|9800XBZ4H0YT">
	<path fill="none" stroke="#1D00D0" stroke-miterlimit="10" d="M1055,747c1.79-1.36,6.34-0.93,10.5-2.5l29.5-7.5
		c14.85-2.21,27.12-3.82,43-6c19.3-2.66,29.01-4,32-5c10.73-3.58,14.43-7.07,30-15c10.31-5.25,16.22-6.66,29-13
		c5.31-2.63,9.62-4.93,12.5-6.5"/>
</g>
<g id="CAMBRIDGE_JTMS|9800ZS0TMB0N">
	<path fill="none" stroke="#1D00D0" stroke-miterlimit="10" d="M1122.5,668.5c-3.47,9.23-5.66,16.88-7,22
		c-5.55,21.25-3.9,28.05-11,39c-3.91,6.02-5.28,5.3-11.5,14.5c-4.57,6.75-6.14,10.55-11.5,18.5c-3.42,5.07-6.49,9.01-8.5,11.5"/>
</g>
<g id="CAMBRIDGE_JTMS|9800ZU1J86D8">
	<path fill="none" stroke="#1D00D0" stroke-miterlimit="10" d="M1120.5,666.5c-3.47,9.23-5.66,16.88-7,22
		c-5.55,21.25-3.9,28.05-11,39c-3.91,6.02-5.28,5.3-11.5,14.5c-4.57,6.75-6.14,10.55-11.5,18.5c-3.42,5.07-6.49,9.01-8.5,11.5"/>
</g>
<g id="CAMBRIDGE_JTMS|9800XVT0GHMV">
	<path fill="none" stroke="#1D00D0" stroke-miterlimit="10" d="M1141,569c-1.71,18.24-5.13,32.34-8,42c-3.11,10.47-7.17,21.03-10,38
		c-1.12,6.72-1.69,12.3-2,16"/>
</g>
<g id="CAMBRIDGE_JTMS|9800YLJPNESW">
	<path fill="none" stroke="#1D00D0" stroke-miterlimit="10" d="M1145,570c-1.71,18.24-5.13,32.34-8,42c-3.11,10.47-7.17,21.03-10,38
		c-1.12,6.72-1.69,12.3-2,16"/>
</g>
<g id="CAMBRIDGE_JTMS|9800YPAOGVV0">
	<path fill="none" stroke="#1D00D0" stroke-miterlimit="10" d="M985,508c15.79,11.55,29.87,20.44,41,27c18.95,11.16,13.9,6.45,41,21
		c4.4,2.36,9.11,4.94,16,6c8.17,1.25,10.86-0.94,20,0c2.57,0.26,5.05,0.72,18,5c5.81,1.92,13.67,4.6,23,8"/>
</g>
<g id="CAMBRIDGE_JTMS|9800WURXH5KB">
	<path fill="none" stroke="#1D00D0" stroke-miterlimit="10" d="M985,503c15.79,11.55,29.87,20.44,41,27c18.95,11.16,13.9,6.45,41,21
		c4.4,2.36,9.11,4.94,16,6c8.17,1.25,10.86-0.94,20,0c2.57,0.26,5.05,0.72,18,5c5.81,1.92,13.67,4.6,23,8"/>
</g>
<g id="CAMBRIDGE_JTMS|9800WLZSM8UU">
	<path fill="none" stroke="#1D00D0" stroke-miterlimit="10" d="M1059.5,431.5c0.75,10.5,3.8,14.14,6.5,15.5
		c2.59,1.31,5.11,0.72,10,3c2.96,1.38,2.69,2.01,6,4c6.56,3.93,9.86,2.77,18,7c2.63,1.36,3.94,2.05,5,3c5.8,5.24,2.95,11.65,6,20
		c3.12,8.55,7.63,5.98,20,22c4.07,5.27,5.04,7.44,9,11c5.38,4.84,10.99,7.5,15,9"/>
</g>
<g id="CAMBRIDGE_JTMS|9800YIZKVIHJ">
	<line fill="none" stroke="#1D00D0" stroke-miterlimit="10" x1="1155.5" y1="525.5" x2="1144.5" y2="573.5"/>
</g>
<g id="CAMBRIDGE_JTMS|9800W1NX9BF2">
	<line fill="none" stroke="#1D00D0" stroke-miterlimit="10" x1="1151.5" y1="524.5" x2="1140.5" y2="572.5"/>
</g>
<g id="CAMBRIDGE_JTMS|9800XIVHRXA0">
	<path fill="none" stroke="#1D00D0" stroke-miterlimit="10" d="M1063.5,429.5c0.48,8.77,3.08,12.12,5.5,13.5
		c2.64,1.51,5.11,0.72,10,3c2.96,1.38,2.69,2.01,6,4c6.56,3.93,9.86,2.77,18,7c2.63,1.36,3.94,2.05,5,3c5.8,5.24,2.95,11.65,6,20
		c3.12,8.55,7.63,5.98,20,22c4.07,5.27,5.04,7.44,9,11c5.38,4.84,10.99,7.5,15,9"/>
</g>
<g id="CAMBRIDGE_JTMS|9800YHOTYC18">
	<path fill="none" stroke="#1D00D0" stroke-miterlimit="10" d="M1153,526c4.29-2.67,9.94-6.59,16-12c5.16-4.61,9.82-8.77,14-15
		c9.72-14.49,9.99-29.99,10-33c0.01-3.45-0.32-1.46-3-26c-0.21-1.92-0.77-7.14-1-14c-0.12-3.45-0.21-6.32,0-10
		c0.22-3.93,0.77-8.67,2-14"/>
</g>
<g id="CAMBRIDGE_JTMS|9800WENYEPFN">
	<path fill="none" stroke="#1D00D0" stroke-miterlimit="10" d="M1149,523c4.29-2.67,9.94-6.59,16-12c5.16-4.61,9.82-8.77,14-15
		c9.72-14.49,9.99-29.99,10-33c0.01-3.45-0.32-1.46-3-26c-0.21-1.92-0.77-7.14-1-14c-0.12-3.45-0.21-6.32,0-10
		c0.22-3.93,0.77-8.67,2-14"/>
</g>
<g id="CAMBRIDGE_JTMS|9800XIVHRXA0_1_">
	<path fill="none" stroke="#1D00D0" stroke-miterlimit="10" d="M1059.5,431.5c11.2-5.59,18.69-11.81,23.5-16.5
		c2.64-2.58,11.85-11.63,23-22c2.06-1.92,5.18-4.75,10-6c6.17-1.6,11.41,0.37,16,2c15.02,5.34,27.65,8.78,33,10
		c5.79,1.32,14.23,2.61,25,2"/>
</g>
<g id="CAMBRIDGE_JTMS|9800WLZSM8UU_1_">
	<path fill="none" stroke="#1D00D0" stroke-miterlimit="10" d="M1058.5,438.5c12.21-6.27,20.29-13.19,25.5-18.5
		c7.8-7.95,12.89-12.6,23-22c2.06-1.92,5.18-4.75,10-6c6.17-1.6,11.41,0.37,16,2c15.02,5.34,27.65,8.78,33,10
		c5.79,1.32,14.23,2.61,25,2"/>
</g>
<g id="CAMBRIDGE_JTMS|9800Z0SUAHN1">
	<path fill="none" stroke="#1D00D0" stroke-miterlimit="10" d="M1193,399c12.68,0.67,22.4,2.98,29,5c6.28,1.93,10.74,3.9,24,8
		c7.68,2.37,11.58,3.57,15,4c8.24,1.04,12.36-0.46,24-2c11.32-1.49,9.16-0.3,27-2c18.41-1.75,19.46-2.9,28-3
		c6.84-0.08,16.79,0.54,29,4"/>
</g>
<g id="CAMBRIDGE_JTMS|9800Y5UMQ5GE">
	<path fill="none" stroke="#1D00D0" stroke-miterlimit="10" d="M1193,404c12.68,0.67,22.4,2.98,29,5c6.28,1.93,10.74,3.9,24,8
		c7.68,2.37,11.58,3.57,15,4c8.24,1.04,12.36-0.46,24-2c11.32-1.49,9.16-0.3,27-2c18.41-1.75,19.46-2.9,28-3
		c6.84-0.08,16.79,0.54,29,4"/>
</g>
<g id="CAMBRIDGE_JTMS|9800X3UWN2BX">
	<path fill="none" stroke="#1D00D0" stroke-miterlimit="10" d="M1193,402c4.69-0.04,11.24-0.87,17-5c6.73-4.83,7.24-10.49,13.5-22.5
		c5.94-11.4,7.48-10.13,18-27c1.02-1.63,7.64-12.29,14-25c9.47-18.91,10.8-27.23,18-45c4.11-10.14,10.7-24.79,21-42"/>
</g>
<g id="CAMBRIDGE_JTMS|9800Z9MXKHRS">
	<path fill="none" stroke="#1D00D0" stroke-miterlimit="10" d="M1190,397c4.69-0.04,11.24-0.87,17-5c6.73-4.83,7.24-10.49,13.5-22.5
		c5.94-11.4,7.48-10.13,18-27c1.02-1.63,7.64-12.29,14-25c9.47-18.91,10.8-27.23,18-45c4.11-10.14,10.7-24.79,21-42"/>
</g>
<g id="CAMBRIDGE_JTMS|9800Y3M15EQ5">
	<path fill="none" stroke="#1D00D0" stroke-miterlimit="10" d="M1029,444c-0.84-9.96-2.58-17.75-4-23c-3.14-11.59-5.4-13.26-5-20
		c0.48-8.02,4.02-11.28,2-18c-0.89-2.95-1.92-3.49-5-9c-2.98-5.33-4.87-9.94-6-13"/>
</g>
<g id="CAMBRIDGE_JTMS|9800W5R3DRXB">
	<path fill="none" stroke="#1D00D0" stroke-miterlimit="10" d="M1024,445c-0.84-9.96-2.58-17.75-4-23c-3.14-11.59-5.4-13.26-5-20
		c0.48-8.02,4.02-11.28,2-18c-0.89-2.95-1.92-3.49-5-9c-2.98-5.33-4.87-9.94-6-13"/>
</g>
<g id="CAMBRIDGE_JTMS|9800YDGZL0K5">
	<path fill="none" stroke="#1D00D0" stroke-miterlimit="10" d="M1006,362c-0.53-1.08-1.31-2.8-2-5c-1.4-4.47-0.73-5.55-2-8
		c-0.2-0.38-2.13-2.26-6-6c-1.87-1.81-3.26-4.07-5-6c-0.47-0.52-1.08-1.18-1-2c0.15-1.64,2.94-2.57,4-3c5.66-2.31,7.9-8.54,9-11
		c0.83-1.86,1.27-3.47,1.5-4.5"/>
</g>
<g id="CAMBRIDGE_JTMS|9800WS0IUKCJ">
	<path fill="none" stroke="#1D00D0" stroke-miterlimit="10" d="M1012,363c-0.53-1.08-1.31-2.8-2-5c-1.4-4.47-0.73-5.55-2-8
		c-0.2-0.38-2.13-2.26-6-6c-1.87-1.81-3.26-4.07-5-6c-0.47-0.52-1.08-1.18-1-2c0.13-1.42,2.22-1.98,4-3c4.87-2.8,6.64-8.65,7.5-11.5
		c0.41-1.35,0.9-3.4,1-6"/>
</g>
<g id="CAMBRIDGE_JTMS|9800W6VRPJER">
	<path fill="none" stroke="#1D00D0" stroke-miterlimit="10" d="M950,375c1-3.63,2.86-8.91,6.5-14.5c2.83-4.35,5.93-7.3,12-13
		c10.97-10.31,16.46-15.46,22.5-18.5c1.89-0.95,4.56-2.15,7-5c3.23-3.78,4.19-8.3,4.5-11.5"/>
</g>
<g id="CAMBRIDGE_JTMS|9800ZITGHVMF">
	<path fill="none" stroke="#1D00D0" stroke-miterlimit="10" d="M953,377c0.92-3.73,2.71-9.07,6.5-14.5c2.8-4.01,3.55-3.57,11-11
		c5.69-5.68,15.9-16.55,20-18c0.32-0.11,2.04-0.71,4.21-1.89c0.55-0.3,1.14-0.66,1.79-1.11c2.87-1.98,4.06-3.77,4.5-4.5
		c0.2-0.33,0.56-0.96,1.5-3.5c0.47-1.27,1.09-3.34,2-6"/>
</g>
<g id="CAMBRIDGE_JTMS|9800WYQUXWQT">
	<path fill="none" stroke="#1D00D0" stroke-miterlimit="10" d="M949,377c3.52-2.6,6.17-3.08,8-3c0.83,0.04,2.12,0.22,4,0
		c2.03-0.24,3.49-0.81,4-1c3.58-1.34,6.56-1.51,12-3c11.84-3.23,13.05-6.6,21-8c0.93-0.16,3.3-0.54,6-2c2.39-1.29,4.02-2.9,5-4"/>
</g>
<g id="CAMBRIDGE_JTMS|9800W1CHALH6">
	<path fill="none" stroke="#1D00D0" stroke-miterlimit="10" d="M951,381c3.52-2.6,6.17-3.08,8-3c0.83,0.04,2.12,0.22,4,0
		c2.03-0.24,3.49-0.81,4-1c3.58-1.34,6.56-1.51,12-3c11.84-3.23,13.05-6.6,21-8c0.93-0.16,3.3-0.54,6-2c2.39-1.29,4.02-2.9,5-4"/>
</g>
<g id="CAMBRIDGE_JTMS|9800ZYQY2V5T">
	<path fill="none" stroke="#1D00D0" stroke-miterlimit="10" d="M861.5,419.5c4.81,0.46,7.71-0.49,9.5-1.5c0.67-0.38,1.1-0.72,2-1
		c3.01-0.94,4.73,0.81,7,0c0.88-0.31,1.21-0.78,3-3c1.64-2.02,3.44-3.92,5-6c2.67-3.56,7.36-5.88,18-12
		c15.24-8.77,16.06-10.02,21-11c3.39-0.67,5.59-0.59,10-2c5.32-1.7,9.36-4.14,12-6"/>
</g>
<g id="CAMBRIDGE_JTMS|9800XGN2FCFX">
	<path fill="none" stroke="#1D00D0" stroke-miterlimit="10" d="M863.5,424.5c4.79-0.27,7.7-1.44,9.5-2.5c0.64-0.37,1.11-0.72,2-1
		c3.01-0.94,4.73,0.81,7,0c0.88-0.31,1.21-0.78,3-3c1.64-2.02,3.44-3.92,5-6c2.67-3.56,7.36-5.88,18-12
		c15.24-8.77,16.06-10.02,21-11c3.39-0.67,5.59-0.59,10-2c5.32-1.7,9.36-4.14,12-6"/>
</g>
<g id="CAMBRIDGE_JTMS|9800YP00LP4O">
	<path fill="none" stroke="#1D00D0" stroke-miterlimit="10" d="M857,383c1.09-2.65,3.62-7.74,9-12c1.75-1.38,6.75-5.25,14-6
		c3.29-0.34,5.72,0.09,10,1c14.27,3.03,21.4,4.54,32,8c4.81,1.57,7.51,2.6,12,3c5.47,0.48,10.03-0.29,13-1"/>
</g>
<g id="CAMBRIDGE_JTMS|9800ZVE0DFMP">
	<path fill="none" stroke="#1D00D0" stroke-miterlimit="10" d="M858,387c1.09-2.65,3.62-7.74,9-12c1.75-1.38,6.75-5.25,14-6
		c3.29-0.34,5.72,0.09,10,1c14.27,3.03,21.4,4.54,32,8c4.81,1.57,7.51,2.6,12,3c5.47,0.48,10.03-0.29,13-1"/>
</g>
<g id="CAMBRIDGE_JTMS|9800Y7QUVJYW">
	<path fill="none" stroke="#1D00D0" stroke-miterlimit="10" d="M864,425c-1.07,1.02-2.47,2.68-3,5c-0.45,1.93,0.16,2.34,0,5
		c-0.17,2.83-0.89,2.8-2,8c-0.58,2.71-0.42,2.89-1,5c-0.69,2.51-1.08,2.88-1,4c0.16,2.25,1.87,2.78,3,5c1.21,2.38,0.01,3.31,0,9
		c-0.01,2.07,0.33,4.72,1,10c0.07,0.55,0.51,4.01,1,7c1.09,6.66,2.2,9.7,4,17c3.49,14.18,1.82,12.98,4,18c1.85,4.26,3.09,8.77,5,13
		c0.22,0.48,0.9,1.97,1,4c0.04,0.82,0.12,2.93-1,5c-1.05,1.94-2.18,2-4,4c-0.93,1.02-2.1,2.6-3,5"/>
</g>
<g id="CAMBRIDGE_JTMS|9800ZXH0E7F0">
	<path fill="none" stroke="#1D00D0" stroke-miterlimit="10" d="M859.5,424.5c-0.96,1.44-2.14,3.65-2.5,6.5c-0.27,2.17,0.16,2.43,0,5
		c-0.17,2.83-0.89,2.8-2,8c-0.58,2.71-0.42,2.89-1,5c-0.69,2.51-1.08,2.88-1,4c0.16,2.25,1.87,2.78,3,5c1.21,2.38,0.01,3.31,0,9
		c-0.01,2.07,0.33,4.72,1,10c0.07,0.55,0.51,4.01,1,7c1.09,6.66,2.2,9.7,4,17c3.3,13.41,1.78,12.76,4,18c1.61,3.79,2.5,7.9,4.5,11.5
		c0.76,1.36,1.91,3.25,1.5,5.5c-0.22,1.19-0.98,2.31-2.5,4.5c-1.53,2.21-2.04,2.54-3,4c-0.76,1.16-1.76,2.96-2.5,5.5"/>
</g>
<g id="CAMBRIDGE_JTMS|9800YXQN3Q37">
	<path fill="none" stroke="#1D00D0" stroke-miterlimit="10" d="M858.5,420.5c-0.57-0.39-1.42-0.93-2.5-1.5
		c-4.95-2.59-9.33-2.58-12-3c-7.42-1.18-7.78-3.18-15-5c-4.07-1.03-10.09-1.94-18-1"/>
</g>
<g id="CAMBRIDGE_JTMS|9800ZT9A0TG6">
	<path fill="none" stroke="#1D00D0" stroke-miterlimit="10" d="M859.5,424.5c-1.24-0.66-3.13-1.59-5.5-2.5c-5.03-1.92-8.52-2.3-12-3
		c-7.84-1.58-8.36-3.32-15-5c-4.07-1.03-10.09-1.94-18-1"/>
</g>
<g id="CAMBRIDGE_JTMS|9800W3ZWF41I">
	<path fill="none" stroke="#1D00D0" stroke-miterlimit="10" d="M653,379c9.48,4.48,17.5,6.23,23,7c8.8,1.23,19,1.04,21,1
		c7.23-0.14,8.96-0.67,14,0c7.69,1.02,14.13,3.64,15,4c4.88,2.02,5.19,2.93,9,4c4.94,1.38,5.77,0.23,12,1c7.18,0.89,13.69,3.36,18,5
		c2.65,1.01,3.74,1.55,6,2c4.64,0.92,6.85-0.02,11,0c3.94,0.02,4.77,0.88,13,3c3.32,0.85,8.09,1.98,14,3"/>
</g>
<g id="CAMBRIDGE_JTMS|9800XVOXBNLX">
	<path fill="none" stroke="#1D00D0" stroke-miterlimit="10" d="M653,383c9.48,4.48,17.5,6.23,23,7c8.8,1.23,19,1.04,21,1
		c7.23-0.14,8.96-0.67,14,0c7.69,1.02,14.13,3.64,15,4c4.88,2.02,5.19,2.93,9,4c4.94,1.38,5.77,0.23,12,1c7.18,0.89,13.69,3.36,18,5
		c2.65,1.01,3.74,1.55,6,2c4.64,0.92,6.85-0.02,11,0c3.94,0.02,4.77,0.88,13,3c3.32,0.85,8.09,1.98,14,3"/>
</g>
<g id="CAMBRIDGE_JTMS|9800XKGDBDWJ">
	<path fill="none" stroke="#1D00D0" stroke-miterlimit="10" d="M859,382c-7.95-6.66-15.95-13.33-24-20c-11.36-9.42-22.7-18.76-34-28
		"/>
</g>
<g id="CAMBRIDGE_JTMS|9800XCX8CQW2">
	<path fill="none" stroke="#1D00D0" stroke-miterlimit="10" d="M858,385c-7.95-6.66-15.95-13.33-24-20c-11.36-9.42-22.7-18.76-34-28
		"/>
</g>
<g id="CAMBRIDGE_JTMS|9800ZQFIRDTY">
	<path fill="none" stroke="#1D00D0" stroke-miterlimit="10" d="M858,386c-1.05-2-2.39-5.08-3-9c-0.82-5.29,0.45-7.27,1-15
		c0.57-8-0.64-7.94,0-16c0.19-2.38,0.8-5.96,2-13c1.59-9.32,2.08-11.27,3-17c0.55-3.44,1.31-8.59,2-15"/>
</g>
<g id="CAMBRIDGE_JTMS|9800YO6L09UY">
	<path fill="none" stroke="#1D00D0" stroke-miterlimit="10" d="M862,386c-1.05-2-2.39-5.08-3-9c-0.82-5.29,0.45-7.27,1-15
		c0.57-8-0.64-7.94,0-16c0.19-2.38,0.8-5.96,2-13c1.59-9.32,2.08-11.27,3-17c0.55-3.44,1.31-8.59,2-15"/>
</g>
<g id="CAMBRIDGE_JTMS|9800ZDGCLO0Z">
	<path fill="none" stroke="#1D00D0" stroke-miterlimit="10" d="M950.5,373.5c0.23-0.75,0.56-1.78,1-3c0.96-2.66,1.69-4.68,3-7
		c1.55-2.73,2.32-4.1,3-5c0.51-0.68,0.96-1.22,1-2c0.08-1.69-1.86-2.99-2.5-3.5c-7.03-5.55-12.42-12.93-19-19
		c-4.08-3.77-4.09-4.35-14-14c-2.22-2.16-4.14-4-7-6c-3.48-2.43-6.98-4.2-12-6c-13.73-4.92-36.12-9.61-38-10"/>
</g>
<g id="CAMBRIDGE_JTMS|9800WB11SHZ7">
	<path fill="none" stroke="#1D00D0" stroke-miterlimit="10" d="M947,376c3.47-7.77,4.64-11.28,5-13c0.17-0.83,0.28-1.82,1-3
		c0.9-1.48,1.95-1.9,2-3c0.04-0.92-0.66-1.65-1-2c-10.34-10.52-15.51-15.77-19-19c-4.08-3.77-4.09-4.35-14-14c-2.22-2.16-4.14-4-7-6
		c-4.18-2.92-8.08-4.59-12-6c-13.73-4.92-36.12-9.61-38-10"/>
</g>
<g id="CAMBRIDGE_JTMS|9800X3SMZMC0">
	<path fill="none" stroke="#1D00D0" stroke-miterlimit="10" d="M862,300c0.41-9.11,0.25-16.58,0-22c-0.31-6.68-0.97-14.67-1-15
		c-0.77-9.26-1.03-8.87-1-12c0.08-8.01,1.76-9.55,1-16c-0.45-3.81-1.07-3.57-2-9c-0.35-2.06-1.09-6.96-1-13
		c0.07-4.56,0.64-11.19,3-19"/>
</g>
<g id="CAMBRIDGE_JTMS|9800ZN0UJRJR">
	<path fill="none" stroke="#1D00D0" stroke-miterlimit="10" d="M866,299c0.41-9.11,0.25-16.58,0-22c-0.31-6.68-0.97-14.67-1-15
		c-0.77-9.26-1.03-8.87-1-12c0.08-8.01,1.76-9.55,1-16c-0.45-3.81-1.07-3.57-2-9c-0.35-2.06-1.09-6.96-1-13
		c0.07-4.56,0.64-11.19,3-19"/>
</g>
<g id="CAMBRIDGE_JTMS|9800YSC5LT8K">
	<path fill="none" stroke="#1D00D0" stroke-miterlimit="10" d="M868,191c5.93,0.23,10.17,1.67,13,3c2.76,1.29,3.17,2,6,3
		c4.33,1.52,5.86,0.74,11,2c1.81,0.44,4.94,1.21,8,3c4.42,2.58,6.7,6.12,8,8c0.15,0.22-0.04-0.05,21,21c12.39,12.4,11.86,11.9,13,13
		c11.04,10.64,18,17,18,17c4.19,3.83,6.73,6.05,10,10c3.9,4.71,6.21,8.67,7,10c3.42,5.77,9.86,15.13,23,31"/>
</g>
<g id="CAMBRIDGE_JTMS|9800WRBZNTGG">
	<path fill="none" stroke="#1D00D0" stroke-miterlimit="10" d="M864,194c5.93,0.23,10.17,1.67,13,3c2.76,1.29,3.17,2,6,3
		c4.33,1.52,5.86,0.74,11,2c1.81,0.44,4.94,1.21,8,3c4.42,2.58,6.7,6.12,8,8c0.15,0.22-0.04-0.05,21,21c12.39,12.4,11.86,11.9,13,13
		c11.04,10.64,18,17,18,17c4.19,3.83,6.73,6.05,10,10c3.9,4.71,6.21,8.67,7,10c3.42,5.77,9.86,15.13,23,31"/>
</g>
<g id="CAMBRIDGE_JTMS|9800Y0TZ4R7F">
	<path fill="none" stroke="#1D00D0" stroke-miterlimit="10" d="M1078,247c-9-9.55-16.16-17.52-21-23c-12.69-14.37-17.01-20.14-26-29
		c-8.85-8.73-16.78-15.07-22-19"/>
</g>
<g id="CAMBRIDGE_JTMS|9800XPN6JMGX">
	<path fill="none" stroke="#1D00D0" stroke-miterlimit="10" d="M1075,250c-9-9.55-16.16-17.52-21-23c-12.61-14.27-17.03-19.94-26-29
		c-8.77-8.85-16.49-15.43-21.5-19.5"/>
</g>
<g id="CAMBRIDGE_JTMS|9800XL1RZZPA">
	<path fill="none" stroke="#1D00D0" stroke-miterlimit="10" d="M1006,314c0.39-2.78,1.35-6.89,4-11c2.38-3.7,5-5.66,8-8
		c6.16-4.8,11.95-10.06,18-15c4.1-3.34,7.73-6.56,15-13c6.87-6.09,15.74-14.14,26-24"/>
</g>
<g id="CAMBRIDGE_JTMS|9800YU0FYRKZ">
	<path fill="none" stroke="#1D00D0" stroke-miterlimit="10" d="M1008,318c0.39-2.78,1.35-6.89,4-11c2.38-3.7,5-5.66,8-8
		c6.16-4.8,11.95-10.06,18-15c4.1-3.34,7.73-6.56,15-13c6.87-6.09,15.74-14.14,26-24"/>
</g>
<g id="CAMBRIDGE_JTMS|9800X7003HZY">
	<path fill="none" stroke="#1D00D0" stroke-miterlimit="10" d="M1075,248c4.05-3.3,9.33-7.94,15-14c5.49-5.87,10-10.7,14-18
		c4.39-8.03,5.92-14.95,7-20c1.74-8.16,3.66-22.55,0-41"/>
</g>
<g id="CAMBRIDGE_JTMS|9800WJULOCLE">
	<path fill="none" stroke="#1D00D0" stroke-miterlimit="10" d="M1071,245c4.05-3.3,9.33-7.94,15-14c5.49-5.87,10-10.7,14-18
		c4.39-8.03,5.92-14.95,7-20c1.74-8.16,3.66-22.55,0-41"/>
</g>
<g id="CAMBRIDGE_JTMS|9800W5876JBL">
	<path fill="none" stroke="#1D00D0" stroke-miterlimit="10" d="M1109,150c3.03-0.85,7.52-1.83,13-2c12.46-0.38,21.9,3.72,27,6
		c27.81,12.43,41.72,18.65,46,21c55.96,30.79,86.85,28.82,95.5,54.5c1.71,5.09,1.97,9.54,2,12"/>
</g>
<g id="CAMBRIDGE_JTMS|9800YAJC06O6">
	<path fill="none" stroke="#1D00D0" stroke-miterlimit="10" d="M1109,155c3.03-0.85,7.52-1.83,13-2c12.46-0.38,21.9,3.72,27,6
		c27.39,12.24,41.08,18.36,46,21c53.43,28.67,82.62,26.78,91,51c1.77,5.11,1.99,9.59,2,12"/>
</g>
<g id="CAMBRIDGE_JTMS|9800WF0F5X0F">
	<path fill="none" stroke="#1D00D0" stroke-miterlimit="10" d="M1122.5,667.5l-108-25L1122.5,667.5z"/>
</g>
<g id="CAMBRIDGE_JTMS|9800WEJ8XOW0">
	<path fill="none" stroke="#1D00D0" stroke-miterlimit="10" d="M1121.5,662.5l-108-25L1121.5,662.5z"/>
</g>
<g id="CAMBRIDGE_JTMS|9800XW09KXH4">
	<path fill="none" stroke="#1D00D0" stroke-miterlimit="10" d="M936.5,612.5c1.33,1.33,2.67,2.67,4,4l34-6l22-3l14,30"/>
</g>
<g id="CAMBRIDGE_JTMS|9800XMQNVFJY">
	<path fill="none" stroke="#1D00D0" stroke-miterlimit="10" d="M934.5,617.5c1.33,1.33,2.67,2.67,4,4l34-6l22-3l14,30"/>
</g>
<g id="CAMBRIDGE_JTMS|9800XSM0QJOT">
	<path fill="none" stroke="#1D00D0" stroke-miterlimit="10" d="M924.5,551.5c0.25,2.91,0.62,7.44,1,13c0.68,10.02,0.5,10.33,1,13
		c0.6,3.21,2.4,7.81,6,17c1.99,5.1,3.11,7.68,4,12c0.68,3.32,0.91,6.12,1,8"/>
</g>
<g id="CAMBRIDGE_JTMS|9800Z5K04HUR">
	<path fill="none" stroke="#1D00D0" stroke-miterlimit="10" d="M929.5,552.5c0.25,2.91,0.62,7.44,1,13c0.68,10.02,0.5,10.33,1,13
		c0.6,3.21,2.4,7.81,6,17c1.99,5.1,3.11,7.68,4,12c0.68,3.32,0.91,6.12,1,8"/>
</g>
<g id="CAMBRIDGE_JTMS|9800YRC720KT">
	<path fill="none" stroke="#1D00D0" stroke-miterlimit="10" d="M928.5,552.5c6.88,0.02,12.35-1.04,16-2c5.87-1.54,4.77-2.23,11-4
		c1.09-0.31,2.61-0.71,4-2c2-1.85,2.7-4.59,2.8-5c0.1-0.41,0.16-0.76,0.2-1"/>
</g>
<g id="CAMBRIDGE_JTMS|9800WSL0VRZ2">
	<path fill="none" stroke="#1D00D0" stroke-miterlimit="10" d="M925.5,547.5c6.88,0.02,12.35-1.04,16-2c5.87-1.54,4.77-2.23,11-4
		c1.09-0.31,2.61-0.71,4-2c2-1.85,2.7-4.59,2.8-5c0.1-0.41,0.16-0.76,0.2-1"/>
</g>
<g id="CAMBRIDGE_JTMS|9800XBLO2CXW">
	<polyline fill="none" stroke="#1D00D0" stroke-miterlimit="10" points="961.5,536.5 975.5,561.5 985.5,578.5 991.5,586.5 
		999.5,601.5 1017.5,639.5 	"/>
</g>
<g id="CAMBRIDGE_JTMS|9800W17YRYUN">
	<polyline fill="none" stroke="#1D00D0" stroke-miterlimit="10" points="956.5,537.5 970.5,562.5 980.5,579.5 986.5,587.5 
		994.5,602.5 1012.5,640.5 	"/>
</g>
<g id="CAMBRIDGE_JTMS|9800YZBT7MC0">
	<path fill="none" stroke="#1D00D0" stroke-miterlimit="10" d="M700.5,264.5c8.6,7.58,15.9,13.23,21,17c8.05,5.96,11.6,7.97,12,12
		c0.34,3.4-1.87,5.11-12,17c-10.05,11.79-10.13,12.75-13,14c-9.37,4.08-17-2.53-21,2c-2.28,2.57-1.79,6.94-1,14
		c0.52,4.62,0.77,6.93,2,9c4.57,7.7,15.33,5.51,17,11c0.74,2.43-1.18,5.28-5,11c-3.31,4.94-6.33,9.47-10,12
		c-7.91,5.47-21.01,3.19-33-4"/>
</g>
<g id="CAMBRIDGE_JTMS|9800X00QABLF">
	<path fill="none" stroke="#1D00D0" stroke-miterlimit="10" d="M696.5,264.5c8.6,7.58,15.9,13.23,21,17c8.05,5.96,11.6,7.97,12,12
		c0.36,3.62-3.76,8.13-12,17c-6.14,6.61-9.26,9.94-12,11c-9.13,3.55-15.09-2.94-20,1c-3.91,3.13-3.49,9.95-3,18
		c0.41,6.63,0.61,9.95,3,13c4.99,6.36,13.61,4.3,15,9c0.74,2.51-1.13,5.07-4,9c-1.78,2.44-5.5,7.54-11,10
		c-8.02,3.59-18.57,1.02-27-6"/>
</g>
<g id="CAMBRIDGE_JTMS|9800YZUTNEFM">
	<path fill="none" stroke="#1D00D0" stroke-miterlimit="10" d="M865.5,543.5l25,6l17,5l11-2c3.33-1.33,6.67-2.67,10-4"/>
</g>
<g id="CAMBRIDGE_JTMS|9800XEGUVGMV">
	<path fill="none" stroke="#1D00D0" stroke-miterlimit="10" d="M865.5,549.5l25,6l17,5l11-2c3.33-1.33,6.67-2.67,10-4"/>
</g>
<g id="MACSSL208528_to_MACSSL208551">
	<path fill="none" stroke="#1D00D0" stroke-miterlimit="10" d="M815.5,560.5c7.75,0.44,13.28,1.28,17,2c1.23,0.24,3.65,0.73,7,1
		c3.46,0.28,7.19,0.26,9,0c8.35-1.18,13.91-12.67,15-15"/>
</g>
<g id="CAMBRIDGE_JTMS|9800XA63H1YU">
	<path fill="none" stroke="#1D00D0" stroke-miterlimit="10" d="M817.5,564.5c7.75,0.44,13.28,1.28,17,2c1.23,0.24,3.65,0.73,7,1
		c3.46,0.28,7.19,0.26,9,0c8.35-1.18,13.91-12.67,15-15"/>
</g>
<g id="CAMBRIDGE_JTMS|9800XIAJFUMP">
	<path fill="none" stroke="#1D00D0" stroke-miterlimit="10" d="M651.5,615.5c6.77-10.08,13.27-17.26,18-22c4.7-4.7,5.04-4.37,14-13
		c8.66-8.34,10.53-10.76,16-15c4.71-3.64,8.33-5.74,14-9c11.63-6.7,17.45-10.05,26-12c3.53-0.8,11.37-2.24,21-1
		c0,0,14.41,1.86,29,10c0.53,0.3,1.96,1.11,4,2c2.3,1,4.99,1.93,10,3c3.34,0.71,7.73,1.49,13,2"/>
</g>
<g id="CAMBRIDGE_JTMS|9800WBETRSU3">
	<path fill="none" stroke="#1D00D0" stroke-miterlimit="10" d="M652.5,619.5c6.77-10.08,13.27-17.26,18-22c4.7-4.7,5.04-4.37,14-13
		c8.66-8.34,10.53-10.76,16-15c4.71-3.64,8.33-5.74,14-9c11.63-6.7,17.45-10.05,26-12c3.53-0.8,11.37-2.24,21-1
		c0,0,14.41,1.86,29,10c0.53,0.3,1.96,1.11,4,2c2.3,1,4.99,1.93,10,3c3.34,0.71,7.73,1.49,13,2"/>
</g>
<g id="CAMBRIDGE_JTMS|9800WBCHNB6O">
	<path fill="none" stroke="#1D00D0" stroke-miterlimit="10" d="M648.5,382.5c-5.54,38.33-12.71,88.55-21,148
		c-5.03,36.05-7.53,54.56-7,78c1.2,53.29,15.18,93.21,23,115c8.71,24.25,38.65,100.44,113,169c22.13,20.41,42.75,35.12,58,45"/>
</g>
<g id="CAMBRIDGE_JTMS|9800XJHHZ5OD">
	<path fill="none" stroke="#1D00D0" stroke-miterlimit="10" d="M643.5,384.5c-5.54,38.33-12.71,88.55-21,148
		c-5.03,36.05-7.53,54.56-7,78c1.2,53.29,15.18,93.21,23,115c8.71,24.25,38.65,100.44,113,169c22.13,20.41,42.75,35.12,58,45"/>
</g>
<g id="CAMBRIDGE_JTMS|9800ZK0BQM8Z">
	<path fill="none" stroke="#1D00D0" stroke-miterlimit="10" d="M656.5,382.5c-2.22,29.72-5.48,53.75-8,70
		c-11.11,71.63-25.97,108.81-6,146c3.95,7.36,8.22,12.77,11,16"/>
</g>
<g id="CAMBRIDGE_JTMS|9800XPCNJANM">
	<path fill="none" stroke="#1D00D0" stroke-miterlimit="10" d="M651.5,384.5c-2.22,29.72-5.48,53.75-8,70
		c-11.11,71.63-25.97,108.81-6,146c3.95,7.36,8.22,12.77,11,16"/>
</g>
<g id="CAMBRIDGE_JTMS|9800WK68W6XE">
	<path fill="none" stroke="#1D00D0" stroke-miterlimit="10" d="M398.5,360.5c3.06,1.89,7.82,4.41,14,6c8.37,2.16,13.75,1.17,21,1
		c19.53-0.47,21.41,5.67,38,5c13.86-0.56,10.9-4.78,26-6c4.7-0.38,26.94-2.17,47,8c2.89,1.47,5.54,3.08,10,4
		c11.53,2.37,21.36-2.78,24-4c9.22-4.26,28.28-5.71,72,8"/>
</g>
<g id="CAMBRIDGE_JTMS|9800X9JXWMZU">
	<path fill="none" stroke="#1D00D0" stroke-miterlimit="10" d="M399.5,365.5c3.06,1.89,7.82,4.41,14,6c8.37,2.16,13.75,1.17,21,1
		c19.53-0.47,21.41,5.67,38,5c13.86-0.56,10.9-4.78,26-6c4.7-0.38,26.94-2.17,47,8c2.89,1.47,5.54,3.08,10,4
		c11.53,2.37,21.36-2.78,24-4c9.22-4.26,28.28-5.71,72,8"/>
</g>
<g id="CAMBRIDGE_JTMS|9800ZAZIOGHG">
	<path fill="none" stroke="#1D00D0" stroke-miterlimit="10" d="M706.5,258.5c31.67,25.33,63.33,50.67,95,76"/>
</g>
<g id="CAMBRIDGE_JTMS|9800XEYKHHKD">
	<path fill="none" stroke="#1D00D0" stroke-miterlimit="10" d="M704.5,260.5c31.67,25.33,63.33,50.67,95,76"/>
</g>
<g id="CAMBRIDGE_JTMS|9800YCCDWGW1">
	<polyline fill="none" stroke="#1D00D0" stroke-miterlimit="10" points="801.5,343.5 785.5,369.5 817.5,385.5 806.5,413.5 	"/>
</g>
<g id="CAMBRIDGE_JTMS|9800YUH7KFF1">
	<polyline fill="none" stroke="#1D00D0" stroke-miterlimit="10" points="805,342.5 789,368.5 821,384.5 810,412.5 	"/>
</g>
<g id="CAMBRIDGE_JTMS|9800ZZXPG0A5">
	<path fill="none" stroke="#1D00D0" stroke-miterlimit="10" d="M859.5,419.5c-0.67-1.33-1.33-2.67-2-4c3-4,6-8,9-12l-8-13
		c1-2,2-4,3-6"/>
</g>
<g id="CAMBRIDGE_JTMS|9800ZIR408ME">
	<path fill="none" stroke="#1D00D0" stroke-miterlimit="10" d="M858.5,420.5c-1-2-2-4-3-6c2.67-3.67,5.33-7.33,8-11
		c-3-4.33-6-8.67-9-13c1-2,2-4,3-6"/>
</g>
<g id="CAMBRIDGE_JTMS|9800ZMJIIRA4">
	<line fill="none" stroke="#1D00D0" stroke-miterlimit="10" x1="1060.5" y1="431.5" x2="1024.5" y2="441.5"/>
</g>
<g id="CAMBRIDGE_JTMS|9800WUW4QTBC">
	<line fill="none" stroke="#1D00D0" stroke-miterlimit="10" x1="1061" y1="438" x2="1029.5" y2="446.5"/>
</g>
<g id="CAMBRIDGE_JTMS|9800WBKMTUIZ">
	<polyline fill="none" stroke="#1D00D0" stroke-miterlimit="10" points="959.5,533.5 971.5,520.5 983.5,501.5 	"/>
</g>
<g id="CAMBRIDGE_JTMS|9800ZVPBJAXB">
	<polyline fill="none" stroke="#1D00D0" stroke-miterlimit="10" points="963.5,538.5 975.5,525.5 987.5,506.5 	"/>
</g>
<g id="CAMBRIDGE_JTMS|9800ZFE9FFOQ">
	<polyline fill="none" stroke="#1D00D0" stroke-miterlimit="10" points="982.5,503.5 1000.5,474.5 1025.5,441.5 	"/>
</g>
<g id="CAMBRIDGE_JTMS|9800XPIAHCTX">
	<polyline fill="none" stroke="#1D00D0" stroke-miterlimit="10" points="1030.5,445.5 1005.5,478.5 987.5,507.5 	"/>
</g>
<g id="CAMBRIDGE_JTMS|9800WBG2ZOAI">
	<path fill="none" stroke="#1D00D0" stroke-miterlimit="10" d="M1367.5,414.5c-1.61,3.97-4.37,9.82-9,16
		c-7.33,9.79-12.08,10.71-18,17c-15.15,16.09-14.92,42.77-11,59c1.49,6.16,3.54,10.97,5,14c0.47,2.1,1,5.22,1,9
		c0,14.39-7.71,20.31-20,42c-10.01,17.67-9.89,22.57-19,32c-8.07,8.35-9.62,5.24-15,12c-9.57,12.03-14.19,32.49-20,33
		c-0.42,0.04-1.81,0.05-3,1c-1.79,1.42-1.91,3.98-2,5c-0.42,4.56-3.02,5.77-6,12c-3.33,6.98-1.69,8.85-5,20
		c-1.42,4.79-2.95,8.58-4,11"/>
</g>
<g id="CAMBRIDGE_JTMS|9800WWXM290F">
	<path fill="none" stroke="#1D00D0" stroke-miterlimit="10" d="M1371.5,416.5c-1.61,3.97-4.37,9.82-9,16
		c-7.33,9.79-12.08,10.71-18,17c-15.15,16.09-14.92,42.77-11,59c1.49,6.16,3.54,10.97,5,14c0.47,2.1,1,5.22,1,9
		c0,14.39-7.71,20.31-20,42c-10.01,17.67-9.89,22.57-19,32c-8.07,8.35-9.62,5.24-15,12c-9.57,12.03-14.19,32.49-20,33
		c-0.42,0.04-1.81,0.05-3,1c-1.79,1.42-1.91,3.98-2,5c-0.42,4.56-3.02,5.77-6,12c-3.33,6.98-1.69,8.85-5,20
		c-1.42,4.79-2.95,8.58-4,11"/>
</g>
<g id="CAMBRIDGE_JTMS|9800YTSQYLFZ">
	<path fill="none" stroke="#1D00D0" stroke-miterlimit="10" d="M1293.5,233.5c0.8-1.12,1.77-2.83,2-5c1.54-14.69-33-28.64-83-50
		c-77.58-33.15-74.85-38.16-100-42c-15.28-2.33-39.85,0.78-89,7c-91.13,11.54-119.26,25.84-142,22c-2.07-0.35-8.48-1.59-13,2
		c-6.84,5.44-5.29,18.79-3,29"/>
</g>
<g id="CAMBRIDGE_JTMS|9800Z71EBTBC">
	<path fill="none" stroke="#1D00D0" stroke-miterlimit="10" d="M1295.5,234.5c1.59-1.63,3.74-4.39,4-8c0.4-5.57-3.95-9.98-6-12
		c-15.02-14.8-65.92-35.07-78-40c-24.18-9.86-35.77-15.73-46.73-20.91c-31.35-14.81-34.77-18.27-53.27-21.09
		c-15.28-2.33-39.85,0.78-89,7c-82.48,10.44-122.29,24.42-142,22c-3.64-0.45-13.94-1.97-20,4c-6.48,6.38-5.06,18.33-3,27"/>
</g>
<g id="CAMBRIDGE_JTMS|9800W3OXDX4I">
	<path fill="none" stroke="#1D00D0" stroke-miterlimit="10" d="M1106.5,149.5c2.12-1.71,4.56-4.11,4-6c-1.06-3.61-12.46-3.23-18-3
		c-22.27,0.94-38.88,3.29-61,6c-9.27,1.14-8.76,0.94-17,2c-16.3,2.1-28.97,4.23-39,6c-72.38,12.74-80.18,18.95-93,16
		c-1.68-0.39-6.99-1.76-11,1c-4.88,3.36-5.46,11.2-5,18"/>
</g>
<g id="CAMBRIDGE_JTMS|9800WKZHHMHK">
	<path fill="none" stroke="#1D00D0" stroke-miterlimit="10" d="M1104.5,149.5c4.19-0.61,8.82-1.49,8.79-2.46
		c0,0-0.01-0.06-0.03-0.13c-0.26-0.83-2.02-3.54-17.97-2.87c-22.27,0.94-38.88,3.29-61,6c-9.27,1.14-8.76,0.94-17,2
		c-16.3,2.1-28.97,4.23-39,6c-72.38,12.74-80.18,18.95-93,16c-1.81-0.42-7.03-1.73-11,1c-4.88,3.36-5.46,11.2-5,18"/>
</g>
<g id="CAMBRIDGE_JTMS|9800ZYSTB4WM">
	<path fill="none" stroke="#1D00D0" stroke-miterlimit="10" d="M868.5,191.5c4.41,0.26,7.75,1.19,10,2c3.95,1.43,5.59,2.86,10,4
		c3.07,0.79,5.46,0.92,7,1c11.19,0.6,22.5-4.5,22.5-4.5c14.35-6.47,12.04-12.73,25-19c4.75-2.3,12.5-3.53,28-6
		c13.81-2.2,18.09-1.91,22-1c7.86,1.82,13.56,5.96,17,9"/>
</g>
<g id="CAMBRIDGE_JTMS|9800WSCW47P1">
	<path fill="none" stroke="#1D00D0" stroke-miterlimit="10" d="M865,194c4.71,0.33,8.17,1.48,10.5,2.5c2.96,1.3,3.09,1.95,6,3
		c3.57,1.29,5.11,0.94,10,2c3.72,0.81,5.43,1.58,7,2c4.98,1.35,11.07-0.1,20.5-5.5c15.58-8.92,13.88-13.62,25-19
		c4.75-2.3,12.5-3.53,28-6c14.45-2.3,18.53-1.87,22-1c8.36,2.09,14.18,7.06,17.5,10.5"/>
</g>
<g id="CAMBRIDGE_JTMS|9800Z0R09UAU">
	<path fill="none" stroke="#1D00D0" stroke-miterlimit="10" d="M1119.5,664.5c-4.32,8.28-6.67,15.31-8,20
		c-4.89,17.25-2.47,26.03-9,37c-4.91,8.25-9,13-9,13c-1.41,1.64-2.85,3.15-5,6c-3.52,4.67-3.26,5.39-5,7c-2.6,2.41-5.77,2.97-12,4
		c-3.18,0.52-7.61,1.04-13,1"/>
</g>
<g id="CAMBRIDGE_JTMS|9800YQSIUW2Z">
	<path fill="none" stroke="#1D00D0" stroke-miterlimit="10" d="M1117.5,662.5c-4.32,8.28-6.67,15.31-8,20
		c-4.89,17.25-2.47,26.03-9,37c-4.91,8.25-9,13-9,13c-1.41,1.64-2.85,3.15-5,6c-3.52,4.67-3.26,5.39-5,7c-2.6,2.41-5.77,2.97-12,4
		c-3.18,0.52-7.61,1.04-13,1"/>
</g>
<g id="CAMBRIDGE_JTMS|9800Y0BINGGE_1_">
	<line fill="none" stroke="#1D00D0" stroke-miterlimit="10" x1="808.5" y1="412.5" x2="859.5" y2="385.5"/>
</g>
<g id="CAMBRIDGE_JTMS|9800Y0BINGGE">
	<line fill="none" stroke="#1D00D0" stroke-miterlimit="10" x1="806.5" y1="409.5" x2="855.5" y2="383.5"/>
</g>
<g id="CAMBRIDGE_JTMS|9800ZABOPQO4">
	<path fill="none" stroke="#1D00D0" stroke-miterlimit="10" d="M1073.5,778.5c2.68-3.31,6.65-8.42,11-15c7.53-11.39,5.97-11.69,9-15
		c7.1-7.75,15.94-6.4,53-12c2.26-0.34,5.51-0.89,12-2c14.6-2.49,16.53-3.01,19-4c3.65-1.47,2.91-1.74,13-7c3.65-1.9,5.84-2.96,10-5
		c9.55-4.69,16.19-7.95,22-11c5.24-2.75,12.47-6.72,21-12"/>
</g>
<g id="CAMBRIDGE_JTMS|9800XFLLOSRD">
	<path fill="none" stroke="#1D00D0" stroke-miterlimit="10" d="M1075.5,781.5c2.68-3.31,6.65-8.42,11-15c7.53-11.39,5.97-11.69,9-15
		c7.1-7.75,15.94-6.4,53-12c2.26-0.34,5.51-0.89,12-2c14.6-2.49,16.53-3.01,19-4c3.65-1.47,2.91-1.74,13-7c3.65-1.9,5.84-2.96,10-5
		c9.55-4.69,16.19-7.95,22-11c5.24-2.75,12.47-6.72,21-12"/>
</g>
</svg>
